<?xml version="1.0" encoding="iso-8859-1"?><!-- Generator: Adobe Illustrator 16.0.0, SVG Export Plug-In . SVG Version: 6.00 Build 0) --><!DOCTYPE svg PUBLIC "-//W3C//DTD SVG 1.1//EN" "http://www.w3.org/Graphics/SVG/1.1/DTD/svg11.dtd"><svg version="1.1" id="svg2" xmlns:dc="http://purl.org/dc/elements/1.1/" xmlns:cc="http://web.resource.org/cc/" xmlns:rdf="http://www.w3.org/1999/02/22-rdf-syntax-ns#" xmlns:svg="http://www.w3.org/2000/svg" xmlns:sodipodi="http://inkscape.sourceforge.net/DTD/sodipodi-0.dtd" xmlns:inkscape="http://www.inkscape.org/namespaces/inkscape" sodipodi:docname="logo-python-inkscape.svg" inkscape:version="0.43" sodipodi:docbase="/home/sdeibel" sodipodi:version="0.32" xmlns="http://www.w3.org/2000/svg" xmlns:xlink="http://www.w3.org/1999/xlink" x="0px" y="0px" width="474.801px" height="137.803px" viewBox="5.591 3.262 474.801 137.803" style="enable-background:new 5.591 3.262 474.801 137.803;" xml:space="preserve"><sodipodi:namedview units="mm" height="40mm" width="210mm" guidetolerance="10.0" objecttolerance="10.0" gridtolerance="10.0" pagecolor="#ffffff" bordercolor="#666666" borderopacity="1.0" id="base" inkscape:zoom="2.1461642" inkscape:cx="250.73166" inkscape:cy="67.50975" inkscape:window-y="6" inkscape:pageopacity="0.0" inkscape:pageshadow="2" inkscape:window-width="1233" inkscape:window-x="0" inkscape:window-height="882" inkscape:current-layer="svg2"></sodipodi:namedview><path id="path46" style="fill:#646464;" d="M184.614,61.929c0-14.562-4.152-22.038-12.457-22.447	c-3.305-0.156-6.53,0.37-9.669,1.589c-2.505,0.896-4.191,1.784-5.078,2.681v34.758c5.312,3.334,10.029,4.884,14.143,4.64	C180.256,82.573,184.614,75.507,184.614,61.929z M194.858,62.533c0,7.398-1.735,13.539-5.225,18.422	c-3.889,5.527-9.279,8.373-16.17,8.529c-5.195,0.165-10.547-1.462-16.054-4.874v31.591l-8.909-3.178V42.903	c1.462-1.793,3.344-3.333,5.624-4.64c5.303-3.09,11.745-4.678,19.329-4.756l0.126,0.126c6.931-0.087,12.271,2.759,16.024,8.529	C193.103,47.455,194.858,54.239,194.858,62.533z"/><path id="path48" style="fill:#646464;" d="M249.305,83.266c0,9.923-0.994,16.794-2.982,20.615c-1.998,3.82-5.8,6.871-11.414,9.143	c-4.552,1.793-9.475,2.768-14.757,2.934l-1.473-5.614c5.371-0.73,9.153-1.462,11.346-2.193c4.318-1.462,7.281-3.703,8.909-6.706	c1.306-2.446,1.949-7.115,1.949-14.025v-2.32c-6.092,2.769-12.476,4.143-19.152,4.143c-4.387,0-8.256-1.374-11.59-4.143	c-3.743-3.012-5.614-6.832-5.614-11.462V36.558l8.909-3.051v37.321c0,3.986,1.286,7.057,3.859,9.211s5.907,3.188,9.991,3.109	c4.084-0.088,8.46-1.667,13.109-4.757v-43.54h8.909V83.266z"/><path id="path50" style="fill:#646464;" d="M284.082,88.997c-1.062,0.088-2.037,0.126-2.934,0.126	c-5.039,0-8.968-1.198-11.774-3.606c-2.798-2.407-4.201-5.73-4.201-9.971v-35.09h-6.102v-5.604h6.102V19.968l8.899-3.168v18.052	h10.01v5.604h-10.01v34.846c0,3.344,0.896,5.712,2.689,7.097c1.54,1.14,3.987,1.793,7.32,1.959V88.997z"/><path id="path52" style="fill:#646464;" d="M338.023,88.266h-8.909V53.878c0-3.499-0.818-6.511-2.446-9.025	c-1.881-2.847-4.493-4.27-7.847-4.27c-4.084,0-9.191,2.154-15.322,6.462v41.221h-8.908V6.069l8.908-2.807V40.7	c5.692-4.143,11.911-6.219,18.666-6.219c4.718,0,8.538,1.589,11.463,4.757c2.934,3.167,4.396,7.115,4.396,11.833V88.266	L338.023,88.266z"/><path id="path54" style="fill:#646464;" d="M385.374,60.526c0-5.595-1.062-10.215-3.178-13.87	c-2.515-4.454-6.423-6.804-11.706-7.047c-9.767,0.565-14.641,7.563-14.641,20.976c0,6.15,1.014,11.287,3.061,15.41	c2.612,5.254,6.531,7.847,11.756,7.759C380.471,83.675,385.374,75.936,385.374,60.526z M395.131,60.584	c0,7.964-2.037,14.592-6.102,19.884c-4.475,5.927-10.653,8.899-18.539,8.899c-7.817,0-13.909-2.973-18.305-8.899	c-3.987-5.292-5.976-11.92-5.976-19.884c0-7.485,2.154-13.782,6.463-18.909c4.552-5.439,10.536-8.168,17.935-8.168	c7.397,0,13.421,2.729,18.061,8.168C392.977,46.802,395.131,53.099,395.131,60.584z"/><path id="path56" style="fill:#646464;" d="M446.205,88.266h-8.909V51.929c0-3.986-1.198-7.096-3.596-9.338	c-2.398-2.232-5.596-3.314-9.582-3.227c-4.229,0.078-8.256,1.462-12.076,4.143v44.759h-8.909v-45.86	c5.127-3.732,9.845-6.17,14.153-7.31c4.064-1.062,7.651-1.589,10.741-1.589c2.114,0,4.104,0.204,5.975,0.614	c3.499,0.809,6.346,2.31,8.538,4.513c2.447,2.437,3.665,5.36,3.665,8.782V88.266z"/><linearGradient id="path1948_1_" gradientUnits="userSpaceOnUse" x1="-2031.3118" y1="275.8684" x2="-1922.2961" y2="182.0751" gradientTransform="matrix(0.5625 0 0 -0.568 1145.5608 166.2816)"><stop offset="0" style="stop-color:#5A9FD4"/><stop offset="1" style="stop-color:#306998"/></linearGradient><path id="path1948" style="fill:url(#path1948_1_);" d="M60.51,6.398c-4.584,0.021-8.961,0.412-12.812,1.094	c-11.346,2.005-13.406,6.2-13.406,13.938v10.219h26.812v3.406H34.291H24.229c-7.792,0-14.616,4.684-16.75,13.594	c-2.462,10.213-2.571,16.586,0,27.25c1.906,7.938,6.458,13.594,14.25,13.594h9.219v-12.25c0-8.85,7.657-16.656,16.75-16.656h26.781	c7.455,0,13.406-6.138,13.406-13.625V21.429c0-7.266-6.13-12.725-13.406-13.938C69.872,6.725,65.094,6.376,60.51,6.398z M46.01,14.616c2.77,0,5.031,2.299,5.031,5.125c0,2.816-2.262,5.094-5.031,5.094c-2.779,0-5.031-2.277-5.031-5.094	C40.979,16.915,43.231,14.616,46.01,14.616z"/><linearGradient id="path1950_1_" gradientUnits="userSpaceOnUse" x1="-1880.1506" y1="125.3049" x2="-1919.0803" y2="180.3837" gradientTransform="matrix(0.5625 0 0 -0.568 1145.5608 166.2816)"><stop offset="0" style="stop-color:#FFD43B"/><stop offset="1" style="stop-color:#FFE873"/></linearGradient><path id="path1950" style="fill:url(#path1950_1_);" d="M91.229,35.054V46.96c0,9.231-7.826,17-16.75,17H47.698	c-7.336,0-13.406,6.278-13.406,13.625v25.531c0,7.267,6.318,11.541,13.406,13.625c8.487,2.496,16.626,2.947,26.781,0	c6.75-1.954,13.406-5.888,13.406-13.625V92.898H61.104v-3.406h26.781h13.406c7.793,0,10.696-5.436,13.406-13.594	c2.8-8.398,2.681-16.476,0-27.25c-1.926-7.757-5.604-13.594-13.406-13.594H91.229z M76.166,99.71c2.779,0,5.031,2.277,5.031,5.094	c0,2.826-2.252,5.125-5.031,5.125c-2.77,0-5.031-2.299-5.031-5.125C71.135,101.988,73.397,99.71,76.166,99.71z"/><path id="text3004" sodipodi:nodetypes="ccccccccccccccccccccccc" style="fill:#646464;" d="M463.554,26.909h1.562v-9.796h3.699	v-1.168h-8.962v1.168h3.7V26.909 M470.201,26.909h1.334v-8.947l2.896,8.946h1.485l3.019-8.916v8.917h1.456V15.946h-1.926	l-3.299,9.393l-2.812-9.393h-2.153V26.909"/><radialGradient id="path1894_1_" cx="-3393.238" cy="376.7913" r="29.0366" gradientTransform="matrix(1.749057e-08 -0.2399 -1.0547 -3.791546e-07 458.7966 -680.0995)" gradientUnits="userSpaceOnUse"><stop offset="0" style="stop-color:#B8B8B8;stop-opacity:0.498"/><stop offset="1" style="stop-color:#7F7F7F;stop-opacity:0"/></radialGradient><path id="path1894" sodipodi:ry="8.6066771" sodipodi:cy="132.28575" sodipodi:rx="48.948284" sodipodi:cx="61.518883" sodipodi:type="arc" style="opacity:0.4438;fill:url(#path1894_1_);enable-background:new ;" d="	M97.339,134.098c0,3.848-16.087,6.967-35.932,6.967c-19.844,0-35.931-3.119-35.931-6.967s16.087-6.968,35.931-6.968	C81.252,127.13,97.339,130.25,97.339,134.098z"/></svg>