<?xml version="1.0" encoding="utf-8"?><!-- Generator: Adobe Illustrator 16.0.0, SVG Export Plug-In . SVG Version: 6.00 Build 0) --><!DOCTYPE svg PUBLIC "-//W3C//DTD SVG 1.1//EN" "http://www.w3.org/Graphics/SVG/1.1/DTD/svg11.dtd"><svg version="1.1" id="Layer_1" xmlns="http://www.w3.org/2000/svg" xmlns:xlink="http://www.w3.org/1999/xlink" x="0px" y="0px" width="480.244px" height="129.875px" viewBox="-0.122 175.062 480.244 129.875" enable-background="new -0.122 175.062 480.244 129.875" xml:space="preserve"><g id="Layer_1_1_"><path fill="#121110" d="M92.375,230.65H52.019c-1.041,0-1.886,0.845-1.886,1.886v19.731c0,1.041,0.845,1.889,1.886,1.889h15.743	v24.513c0,0-3.535,1.206-13.308,1.206c-11.53,0-27.637-4.214-27.637-39.632c0-35.425,16.772-40.087,32.518-40.087	c13.63,0,19.502,2.401,23.238,3.556c1.174,0.36,2.26-0.808,2.26-1.851l4.502-19.063c0-0.487-0.165-1.075-0.721-1.474	c-1.517-1.082-10.774-6.262-34.16-6.262c-26.941,0-54.576,11.463-54.576,66.562c0,55.103,31.64,63.313,58.302,63.313	c22.076,0,35.468-9.434,35.468-9.434c0.552-0.306,0.612-1.077,0.612-1.431v-61.537C94.26,231.495,93.416,230.65,92.375,230.65"/><path fill="#121110" d="M300.354,181.664c0-1.049-0.832-1.896-1.873-1.896h-22.724c-1.038,0-1.882,0.847-1.882,1.896	c0,0.005,0.006,43.913,0.006,43.913h-35.419v-43.913c0-1.049-0.836-1.896-1.875-1.896h-22.722c-1.034,0-1.877,0.847-1.877,1.896	v118.904c0,1.048,0.843,1.901,1.877,1.901h22.722c1.039,0,1.875-0.854,1.875-1.901v-50.86h35.419c0,0-0.062,50.856-0.062,50.86	c0,1.048,0.844,1.901,1.883,1.901h22.777c1.041,0,1.873-0.854,1.875-1.901V181.664"/><path fill="#121110" d="M135.254,197.268c0-8.183-6.56-14.795-14.653-14.795c-8.085,0-14.65,6.612-14.65,14.795	c0,8.173,6.565,14.802,14.65,14.802C128.694,212.07,135.254,205.441,135.254,197.268"/><path fill="#121110" d="M133.629,275.486c0-3.047,0-54.886,0-54.886c0-1.043-0.841-1.895-1.88-1.895h-22.651	c-1.039,0-1.969,1.072-1.969,2.115c0,0,0,66.045,0,78.634c0,2.312,1.44,2.998,3.304,2.998c0,0,9.668,0,20.408,0	c2.239,0,2.788-1.1,2.788-3.034C133.629,295.202,133.629,278.689,133.629,275.486"/><path fill="#121110" d="M386.71,218.884h-22.549c-1.034,0-1.876,0.852-1.876,1.901v58.302c0,0-5.729,4.192-13.859,4.192	c-8.13,0-10.287-3.689-10.287-11.65c0-7.971,0-50.844,0-50.844c0-1.049-0.841-1.901-1.875-1.901h-22.886	c-1.032,0-1.879,0.852-1.879,1.901c0,0,0,31.048,0,54.693c0,23.646,13.179,29.431,31.31,29.431c14.873,0,26.864-8.216,26.864-8.216	s0.571,4.329,0.829,4.843c0.259,0.512,0.932,1.029,1.659,1.029l14.56-0.064c1.032,0,1.879-0.854,1.879-1.898l-0.008-79.817	C388.592,219.736,387.749,218.884,386.71,218.884"/><path fill="#121110" d="M439.445,283.207c-7.821-0.238-13.126-3.788-13.126-3.788v-37.653c0,0,5.233-3.208,11.654-3.782	c8.12-0.727,15.944,1.726,15.944,21.095C453.918,279.505,450.387,283.536,439.445,283.207z M448.339,216.214	c-12.807,0-21.518,5.714-21.518,5.714v-40.263c0-1.05-0.839-1.897-1.875-1.897h-22.787c-1.036,0-1.878,0.847-1.878,1.897v118.903	c0,1.048,0.842,1.901,1.881,1.901c0.002,0,15.805,0,15.811,0c0.711,0,1.25-0.367,1.648-1.009c0.393-0.639,0.96-5.482,0.96-5.482	s9.318,8.83,26.957,8.83c20.708,0,32.584-10.504,32.584-47.154C480.122,221.003,461.155,216.214,448.339,216.214"/><path fill="#121110" d="M198.936,218.695h-17.045c0,0-0.026-22.513-0.026-22.519c0-0.852-0.439-1.278-1.424-1.278h-23.228	c-0.903,0-1.388,0.398-1.388,1.265v23.271c0,0-11.64,2.809-12.427,3.037c-0.784,0.226-1.361,0.95-1.361,1.812v14.623	c0,1.052,0.84,1.898,1.879,1.898h11.909c0,0,0,15.295,0,35.178c0,26.13,18.328,28.697,30.696,28.697	c5.651,0,12.411-1.814,13.527-2.228c0.675-0.248,1.067-0.947,1.067-1.705l0.019-16.086c0-1.05-0.886-1.897-1.884-1.897	c-0.993,0-3.534,0.404-6.15,0.404c-8.372,0-11.209-3.893-11.209-8.932c0-5.035-0.001-33.432-0.001-33.432h17.046	c1.039,0,1.88-0.847,1.88-1.898v-18.317C200.816,219.54,199.975,218.695,198.936,218.695"/></g></svg>