<?xml version="1.0" encoding="utf-8"?><!-- Generator: Adobe Illustrator 19.1.0, SVG Export Plug-In . SVG Version: 6.00 Build 0) --><svg version="1.1" id="Layer_1" xmlns="http://www.w3.org/2000/svg" xmlns:xlink="http://www.w3.org/1999/xlink" x="0px" y="0px" viewBox="-256.3 274.4 294.7 49.5" style="enable-background:new -256.3 274.4 294.7 49.5;" xml:space="preserve"><style type="text/css">.st0{fill:#75787D;}	.st1{fill:#F7991F;}	.st2{fill:#F15823;}</style><g><path class="st0" d="M-82.9,311c-0.4,0.2-0.9,0.5-1.3,0.7c-1.3,0.6-2.6,0.7-3.8,0.7c-1.3,0-3.2-0.1-5.2-1.5c-2.8-2-4-5.4-4-8.3	c0-6.1,5-9.1,9-9.1c1.4,0,2.9,0.4,4.1,1.1c2,1.3,2.5,3,2.8,3.9l-9.3,3.7l-3,0.2c1,5,4.4,7.9,8.1,7.9c2,0,3.5-0.7,4.8-1.4L-82.9,311	L-82.9,311z M-86.6,299.2c0.7-0.3,1.1-0.5,1.1-1.1c0-1.6-1.8-3.4-3.9-3.4c-1.6,0-4.5,1.2-4.5,5.5c0,0.7,0.1,1.4,0.1,2.1	L-86.6,299.2L-86.6,299.2z M-98.2,311.9l1.5-0.9c-0.7-0.1-1.3-0.1-2-0.2c-1.3-0.1-1.6-0.4-1.6-1.9v-9.1c0-5.6,0-10.4,0.4-13.4	c0.2-1.4,0.6-1.6,1.8-2.3h-5.6l-3,1.4h3.1c0,1.8-0.2,4.3-0.2,6.3c-0.1,4.1-0.2,8.5-0.2,11.5v6.4c0,0.8-0.2,0.9-1.1,2.1h6.9V311.9z M-111.1,295.4c0.9,0.7,2.8,2.3,2.8,5.3c0,2.9-1.7,4.3-3.3,5.6c-0.5,0.5-1.1,1.1-1.1,1.9c0,0.9,0.6,1.3,1,1.7l1.4,1.1	c1.7,1.5,3.3,2.8,3.3,5.5c0,3.7-3.6,7.4-10.4,7.4c-5.7,0-8.5-2.7-8.5-5.6c0-1.4,0.7-3.4,3-4.8c2.4-1.5,5.8-1.7,7.5-1.8	c-0.6-0.7-1.2-1.5-1.2-2.7c0-0.7,0.2-1.1,0.4-1.5c-0.4,0-0.9,0.1-1.3,0.1c-4.2,0-6.5-3.1-6.5-6.2c0-1.8,0.8-3.8,2.5-5.3	c2.2-1.9,4.9-2.2,7.1-2.2h8.1l-2.5,1.4h-2.3V295.4z M-113.9,312.9c-0.3,0-0.5,0-0.9,0s-2.5,0.1-4.1,0.6c-0.9,0.3-3.4,1.3-3.4,4.1	c0,2.8,2.7,4.8,6.9,4.8c3.8,0,5.8-1.8,5.8-4.3C-109.6,316.1-110.9,315-113.9,312.9L-113.9,312.9z M-112.8,305.4	c0.9-0.9,1-2.2,1-2.9c0-2.8-1.7-7.3-5-7.3c-1,0-2.1,0.5-2.8,1.3s-0.9,1.9-0.9,2.9c0,2.6,1.5,7,4.9,7	C-114.5,306.5-113.4,306.1-112.8,305.4L-112.8,305.4z M-135.6,312.4c-6.3,0-9.6-4.9-9.6-9.3c0-5.2,4.2-9.6,10.2-9.6	c5.8,0,9.4,4.5,9.4,9.3C-125.6,307.4-129.1,312.4-135.6,312.4L-135.6,312.4z M-130.6,309.2c0.9-1.3,1.2-2.8,1.2-4.4	c0-3.5-1.7-10.1-6.5-10.1c-1.3,0-2.6,0.5-3.5,1.3c-1.5,1.4-1.8,3.1-1.8,4.8c0,3.9,1.9,10.3,6.7,10.3	C-133.1,311.2-131.5,310.4-130.6,309.2L-130.6,309.2z M-156.5,312.4c-6.3,0-9.6-4.9-9.6-9.3c0-5.2,4.2-9.6,10.2-9.6	c5.8,0,9.4,4.5,9.4,9.3C-146.5,307.4-150.1,312.4-156.5,312.4L-156.5,312.4z M-151.6,309.2c0.9-1.3,1.2-2.8,1.2-4.4	c0-3.5-1.7-10.1-6.5-10.1c-1.3,0-2.6,0.5-3.5,1.3c-1.5,1.4-1.8,3.1-1.8,4.8c0,3.9,1.9,10.3,6.7,10.3	C-154.1,311.2-152.5,310.4-151.6,309.2L-151.6,309.2z M-168.7,311v-4.5c0-0.4,0-1.4,0.1-1.8c0.1-0.3,0.1-0.4,0.4-0.6l1-0.9h-7.8	l-3,1.6l5.6-0.3v5.9c-1.1,0.4-2.3,0.9-4.7,0.9c-8.1,0-13.1-6.5-13.1-13.5c0-6.5,4.4-10.9,10.2-10.9c4.4,0,6.6,2.3,7.9,3.5l-0.9,1.5	l1.3-0.3l3.1-2.9c-0.8-0.6-2.1-1.5-4.9-2.3c-1.7-0.5-3.7-0.8-5.7-0.8c-9.4,0-14.9,6.6-14.9,13.8c0,5.9,3.9,13.4,14.1,13.4	c2,0,4-0.3,6.1-0.6L-168.7,311L-168.7,311z"/></g><g><g><path class="st1" d="M-256.2,277.8v28.4l12.9-13.2l11.4,11.4l24.1-24.1v-2.2c0-2.1-1.7-3.7-3.7-3.7c-9.1,0-32.5,0.1-41.3,0	C-254.7,274.4-256.2,275.9-256.2,277.8z"/></g><g><polygon class="st1" points="-237.6,298.6 -243.4,304.5 -237.6,310.4	"/></g><g><path class="st2" d="M-256.3,317.3v2c0,1.9,1.6,3.5,3.5,3.5h41.6c1.9,0,3.4-1.5,3.4-3.4v-27.7l-24.1,24.1l-11.4-11.4	C-243.3,304.4-256.2,317.4-256.3,317.3z"/></g></g><g><path class="st0" d="M-58.5,303.9h-8.6l-3,7.5h-1.6l8.6-21.3h0.9l8.4,21.3h-1.7L-58.5,303.9z M-66.6,302.6h7.6l-2.9-7.7	c-0.2-0.6-0.5-1.4-0.9-2.5c-0.3,0.9-0.5,1.8-0.9,2.5L-66.6,302.6z"/><path class="st0" d="M-40.2,311.4v-10.2c0-1.6-0.3-2.7-1-3.5c-0.7-0.8-1.7-1.1-3.1-1.1c-1.9,0-3.3,0.5-4.2,1.4	c-0.9,1-1.3,2.5-1.3,4.6v8.7h-1.4v-15.7h1.2l0.3,2.2h0.1c1-1.6,2.9-2.5,5.5-2.5c3.6,0,5.4,1.9,5.4,5.8v10.3H-40.2z"/><path class="st0" d="M-25.3,311.4l-0.4-2.5h-0.1c-0.8,1-1.6,1.7-2.5,2.2c-0.8,0.4-1.8,0.6-3,0.6c-1.6,0-2.8-0.4-3.6-1.2	c-0.9-0.8-1.3-1.9-1.3-3.3c0-1.5,0.6-2.7,1.9-3.6c1.3-0.9,3.1-1.3,5.6-1.4l3-0.1v-1c0-1.5-0.3-2.6-0.9-3.4c-0.6-0.8-1.6-1.1-3-1.1	c-1.5,0-3,0.4-4.6,1.2l-0.5-1.3c1.7-0.8,3.5-1.2,5.1-1.2c1.7,0,3,0.5,3.9,1.4c0.9,0.9,1.3,2.3,1.3,4.2v10.5H-25.3z M-31.1,310.4	c1.7,0,3-0.5,4-1.4s1.5-2.3,1.5-4v-1.6l-2.8,0.1c-2.2,0.1-3.8,0.5-4.7,1c-0.9,0.6-1.4,1.5-1.4,2.7c0,1,0.3,1.8,0.9,2.3	C-33,310.1-32.2,310.4-31.1,310.4z"/><path class="st0" d="M-18.2,311.4h-1.4v-22.6h1.4V311.4z"/><path class="st0" d="M-16.2,295.6h1.5l3.3,8.9c1,2.7,1.7,4.6,1.9,5.5h0.1c0.4-1.2,1.1-3.1,2-5.6l3.3-8.8h1.5L-9.7,314	c-0.6,1.5-1.1,2.5-1.4,3s-0.8,0.9-1.4,1.2c-0.5,0.3-1.1,0.4-1.9,0.4c-0.6,0-1.2-0.1-1.8-0.3V317c0.6,0.2,1.2,0.2,1.8,0.2	c0.5,0,0.9-0.1,1.3-0.3c0.4-0.2,0.7-0.6,1-1.1s0.7-1.3,1.1-2.3s0.7-1.8,0.8-2.1L-16.2,295.6z"/><path class="st0" d="M5.5,310.4c0.9,0,1.7-0.1,2.4-0.2v1.2c-0.7,0.2-1.5,0.3-2.4,0.3c-1.4,0-2.4-0.4-3.1-1.1c-0.7-0.7-1-1.9-1-3.5	v-10.2H-1v-0.8l2.3-0.7l0.7-3.6h0.7v3.8h4.6v1.3H2.7v10c0,1.2,0.2,2.1,0.6,2.7C3.9,310.1,4.6,310.4,5.5,310.4z"/><path class="st0" d="M9.9,291.2c0-0.9,0.3-1.4,0.9-1.4c0.3,0,0.5,0.1,0.7,0.4c0.2,0.2,0.3,0.6,0.3,1c0,0.4-0.1,0.8-0.3,1	c-0.2,0.3-0.4,0.4-0.7,0.4C10.2,292.6,9.9,292.2,9.9,291.2z M11.6,311.4h-1.4v-15.8h1.4V311.4z"/><path class="st0" d="M21.4,311.7c-2.3,0-4-0.7-5.3-2.1s-1.9-3.4-1.9-6s0.7-4.7,2-6.1s3.1-2.2,5.5-2.2c1.4,0,2.7,0.2,3.9,0.7	l-0.4,1.3c-1.4-0.5-2.6-0.7-3.6-0.7c-1.9,0-3.4,0.6-4.4,1.8c-1,1.2-1.5,2.9-1.5,5.2c0,2.1,0.5,3.8,1.5,5c1,1.2,2.4,1.8,4.2,1.8	c1.4,0,2.8-0.3,4-0.8v1.3C24.3,311.5,23,311.7,21.4,311.7z"/><path class="st0" d="M38.4,307.3c0,1.4-0.5,2.5-1.6,3.3c-1.1,0.8-2.6,1.1-4.6,1.1c-2.1,0-3.8-0.3-5-1v-1.6c1.6,0.8,3.3,1.2,5,1.2	c1.6,0,2.7-0.3,3.6-0.8s1.2-1.2,1.2-2.1c0-0.8-0.3-1.5-1-2c-0.6-0.5-1.7-1.1-3.2-1.6c-1.6-0.6-2.7-1.1-3.3-1.5	c-0.6-0.4-1.1-0.9-1.4-1.4s-0.5-1.2-0.5-1.9c0-1.2,0.5-2.1,1.5-2.8c1-0.7,2.4-1,4.2-1c1.7,0,3.3,0.3,4.9,1l-0.5,1.3	c-1.6-0.6-3-1-4.3-1s-2.3,0.2-3.1,0.6c-0.8,0.4-1.1,1-1.1,1.8c0,0.8,0.3,1.5,0.9,2s1.7,1,3.4,1.7c1.4,0.5,2.5,1,3.1,1.4	s1.1,0.9,1.5,1.4C38.3,306,38.4,306.6,38.4,307.3z"/></g></svg>